<svg width="26" height="26" viewBox="0 0 26 26" fill="none" xmlns="http://www.w3.org/2000/svg">
<path d="M11.66 6H15C15.5304 6 16.0391 6.21071 16.4142 6.58579C16.7893 6.96086 17 7.46957 17 8V11.34L18 12.34L24 8V18M17 17V18C17 18.5304 16.7893 19.0391 16.4142 19.4142C16.0391 19.7893 15.5304 20 15 20H4C3.46957 20 2.96086 19.7893 2.58579 19.4142C2.21071 19.0391 2 18.5304 2 18V8C2 7.46957 2.21071 6.96086 2.58579 6.58579C2.96086 6.21071 3.46957 6 4 6H6L17 17Z" stroke="#610BEF" stroke-width="2.5" stroke-linecap="round" stroke-linejoin="round"/>
<path d="M2 2L24 24" stroke="#610BEF" stroke-width="2.5" stroke-linecap="round" stroke-linejoin="round"/>
</svg>
