<svg width="26" height="25" viewBox="0 0 26 25" fill="none" xmlns="http://www.w3.org/2000/svg">
<path d="M26 11.375C26 17.6572 20.1793 22.75 13 22.75C11.7124 22.7517 10.4302 22.5846 9.18612 22.2528C8.23712 22.7338 6.058 23.6568 2.392 24.258C2.067 24.31 1.82 23.972 1.94837 23.6698C2.52362 22.3113 3.04362 20.501 3.19963 18.85C1.209 16.8512 0 14.235 0 11.375C0 5.09275 5.82075 0 13 0C20.1793 0 26 5.09275 26 11.375ZM8.125 11.375C8.125 10.944 7.95379 10.5307 7.64905 10.226C7.3443 9.92121 6.93098 9.75 6.5 9.75C6.06902 9.75 5.6557 9.92121 5.35095 10.226C5.0462 10.5307 4.875 10.944 4.875 11.375C4.875 11.806 5.0462 12.2193 5.35095 12.524C5.6557 12.8288 6.06902 13 6.5 13C6.93098 13 7.3443 12.8288 7.64905 12.524C7.95379 12.2193 8.125 11.806 8.125 11.375ZM14.625 11.375C14.625 10.944 14.4538 10.5307 14.149 10.226C13.8443 9.92121 13.431 9.75 13 9.75C12.569 9.75 12.1557 9.92121 11.851 10.226C11.5462 10.5307 11.375 10.944 11.375 11.375C11.375 11.806 11.5462 12.2193 11.851 12.524C12.1557 12.8288 12.569 13 13 13C13.431 13 13.8443 12.8288 14.149 12.524C14.4538 12.2193 14.625 11.806 14.625 11.375ZM19.5 13C19.931 13 20.3443 12.8288 20.649 12.524C20.9538 12.2193 21.125 11.806 21.125 11.375C21.125 10.944 20.9538 10.5307 20.649 10.226C20.3443 9.92121 19.931 9.75 19.5 9.75C19.069 9.75 18.6557 9.92121 18.351 10.226C18.0462 10.5307 17.875 10.944 17.875 11.375C17.875 11.806 18.0462 12.2193 18.351 12.524C18.6557 12.8288 19.069 13 19.5 13Z" fill="white"/>
</svg>
