<svg width="14" height="14" viewBox="0 0 14 14" fill="none" xmlns="http://www.w3.org/2000/svg">
<path d="M1.09784 2.77737L5.32047 7L1.09784 11.2226C0.875122 11.4454 0.75 11.7474 0.75 12.0624C0.75 12.3774 0.875121 12.6794 1.09784 12.9022C1.32056 13.1249 1.62263 13.25 1.9376 13.25C2.25258 13.25 2.55465 13.1249 2.77737 12.9022L7 8.67953L11.2226 12.9022C11.3329 13.0124 11.4638 13.0999 11.6079 13.1596C11.752 13.2193 11.9064 13.25 12.0624 13.25C12.2184 13.25 12.3728 13.2193 12.5169 13.1596C12.661 13.0999 12.7919 13.0124 12.9022 12.9022C13.0124 12.7919 13.0999 12.661 13.1596 12.5169C13.2193 12.3728 13.25 12.2184 13.25 12.0624C13.25 11.9064 13.2193 11.752 13.1596 11.6079C13.0999 11.4638 13.0124 11.3329 12.9022 11.2226L8.67953 7L12.9022 2.77737C13.1249 2.55465 13.25 2.25258 13.25 1.9376C13.25 1.62263 13.1249 1.32056 12.9022 1.09784C12.6794 0.875121 12.3774 0.75 12.0624 0.75C11.7474 0.75 11.4454 0.875122 11.2226 1.09784L7 5.32047L2.77737 1.09784C2.55465 0.875122 2.25258 0.75 1.9376 0.75C1.62263 0.75 1.32056 0.875121 1.09784 1.09784C0.875121 1.32056 0.75 1.62263 0.75 1.9376C0.75 2.25258 0.875122 2.55465 1.09784 2.77737Z" fill="#474747" stroke="#474747" stroke-width="0.5"/>
</svg>
