<svg width="40" height="16" viewBox="0 0 40 16" fill="none" xmlns="http://www.w3.org/2000/svg">
<path d="M39.8413 10.827L39.446 12.8977C39.0785 14.8367 37.2654 16.1386 35.2126 15.9409L31.1251 15.5456C29.3459 15.3738 27.8282 14.1078 27.375 12.4185L26.1149 7.7159C24.2479 6.9511 22.1911 6.60165 19.9447 6.66555C17.7811 6.71271 15.649 7.19346 13.6745 8.07932L12.8918 12.4824C12.5962 14.1518 11.2204 15.3958 9.47713 15.5715L5.41353 15.9789C3.38472 16.1826 1.44178 14.8926 0.866687 12.9636L0.247662 10.8909C-0.36737 8.83214 0.181765 6.66355 1.6874 5.19986C5.2438 1.7453 11.1725 0.0120243 19.4734 4.31845e-05C27.7883 -0.0099411 33.9007 1.71135 37.8145 5.16791C39.4619 6.62162 40.2307 8.77423 39.8413 10.827V10.827Z" fill="white"/>
</svg>
