<svg width="26" height="26" viewBox="0 0 26 26" fill="none" xmlns="http://www.w3.org/2000/svg">
<path d="M2 2.00302L24 24.003" stroke="#610BEF" stroke-width="2.5" stroke-linecap="round" stroke-linejoin="round"/>
<path d="M16 10.343V5.00302C16.0007 4.25905 15.725 3.54134 15.2264 2.98922C14.7277 2.4371 14.0417 2.08996 13.3015 2.0152C12.5613 1.94043 11.8197 2.14336 11.2207 2.58461C10.6217 3.02586 10.208 3.67393 10.06 4.40302M10 10.003V13.003C10.0005 13.596 10.1768 14.1755 10.5064 14.6684C10.8361 15.1612 11.3045 15.5453 11.8523 15.7722C12.4002 15.999 13.0029 16.0584 13.5845 15.9429C14.1661 15.8273 14.7005 15.542 15.12 15.123L10 10.003Z" stroke="#610BEF" stroke-width="2.5" stroke-linecap="round" stroke-linejoin="round"/>
<path d="M20.0002 11.003V13.003C19.9998 13.4155 19.963 13.8271 19.8902 14.233M18.0002 17.953C17.024 18.9494 15.7723 19.6315 14.4058 19.9116C13.0393 20.1918 11.6202 20.0572 10.3307 19.5253C9.04115 18.9934 7.93995 18.0883 7.16836 16.9262C6.39677 15.7641 5.98998 14.3979 6.00019 13.003V11.003L18.0002 17.953Z" stroke="#610BEF" stroke-width="2.5" stroke-linecap="round" stroke-linejoin="round"/>
<path d="M13 20.003V24.003" stroke="#610BEF" stroke-width="2.5" stroke-linecap="round" stroke-linejoin="round"/>
<path d="M9 24.003H17" stroke="#610BEF" stroke-width="2.5" stroke-linecap="round" stroke-linejoin="round"/>
</svg>
