<svg width="18" height="26" viewBox="0 0 18 26" fill="none" xmlns="http://www.w3.org/2000/svg">
<path d="M9 2C8.20435 2 7.44129 2.31607 6.87868 2.87868C6.31607 3.44129 6 4.20435 6 5V13C6 13.7956 6.31607 14.5587 6.87868 15.1213C7.44129 15.6839 8.20435 16 9 16C9.79565 16 10.5587 15.6839 11.1213 15.1213C11.6839 14.5587 12 13.7956 12 13V5C12 4.20435 11.6839 3.44129 11.1213 2.87868C10.5587 2.31607 9.79565 2 9 2V2Z" stroke="white" stroke-width="2.5" stroke-linecap="round" stroke-linejoin="round"/>
<path d="M16 11V13C16 14.8565 15.2625 16.637 13.9497 17.9497C12.637 19.2625 10.8565 20 9 20C7.14348 20 5.36301 19.2625 4.05025 17.9497C2.7375 16.637 2 14.8565 2 13V11" stroke="white" stroke-width="2.5" stroke-linecap="round" stroke-linejoin="round"/>
<path d="M9 20V24" stroke="white" stroke-width="2.5" stroke-linecap="round" stroke-linejoin="round"/>
<path d="M5 24H13" stroke="white" stroke-width="2.5" stroke-linecap="round" stroke-linejoin="round"/>
</svg>
