<svg width="18" height="18" viewBox="0 0 18 18" fill="none" xmlns="http://www.w3.org/2000/svg">
<path d="M1 1.00305L17 17.0031" stroke="#474747" stroke-width="1.5" stroke-linecap="round" stroke-linejoin="round"/>
<path d="M11.182 7.06765V3.18402C11.1825 2.64295 10.982 2.12098 10.6194 1.71943C10.2567 1.31789 9.75778 1.06543 9.21945 1.01105C8.68112 0.956674 8.14179 1.10426 7.70615 1.42517C7.27052 1.74608 6.96967 2.2174 6.862 2.74765M6.81836 6.82038V9.0022C6.81874 9.43344 6.94691 9.8549 7.18667 10.2133C7.42644 10.5718 7.76705 10.8511 8.16549 11.0161C8.56393 11.1811 9.00232 11.2243 9.4253 11.1403C9.84828 11.0563 10.2369 10.8488 10.542 10.544L6.81836 6.82038Z" stroke="#474747" stroke-width="1.5" stroke-linecap="round" stroke-linejoin="round"/>
<path d="M14.0911 7.54767V9.00221C14.0909 9.30217 14.0641 9.60152 14.0111 9.89676M12.6366 12.6022C11.9266 13.3269 11.0163 13.8229 10.0225 14.0266C9.02865 14.2304 7.99661 14.1326 7.05877 13.7457C6.12092 13.3588 5.32005 12.7006 4.75889 11.8554C4.19774 11.0102 3.90189 10.0167 3.90932 9.00221V7.54767L12.6366 12.6022Z" stroke="#474747" stroke-width="1.5" stroke-linecap="round" stroke-linejoin="round"/>
<path d="M9 14.0931V17.0022" stroke="#474747" stroke-width="1.5" stroke-linecap="round" stroke-linejoin="round"/>
<path d="M6.09082 17.0022H11.909" stroke="#474747" stroke-width="1.5" stroke-linecap="round" stroke-linejoin="round"/>
</svg>
