<svg width="12" height="18" viewBox="0 0 12 18" fill="none" xmlns="http://www.w3.org/2000/svg">
<path d="M6.091 1C5.51234 1 4.95739 1.22987 4.54822 1.63904C4.13905 2.04821 3.90918 2.60316 3.90918 3.18182V9C3.90918 9.57865 4.13905 10.1336 4.54822 10.5428C4.95739 10.9519 5.51234 11.1818 6.091 11.1818C6.66965 11.1818 7.22461 10.9519 7.63378 10.5428C8.04295 10.1336 8.27282 9.57865 8.27282 9V3.18182C8.27282 2.60316 8.04295 2.04821 7.63378 1.63904C7.22461 1.22987 6.66965 1 6.091 1V1Z" stroke="#474747" stroke-width="1.5" stroke-linecap="round" stroke-linejoin="round"/>
<path d="M11.1818 7.54547V9.00002C11.1818 10.3502 10.6455 11.6451 9.69072 12.5998C8.73599 13.5546 7.4411 14.0909 6.09091 14.0909C4.74072 14.0909 3.44582 13.5546 2.49109 12.5998C1.53636 11.6451 1 10.3502 1 9.00002V7.54547" stroke="#474747" stroke-width="1.5" stroke-linecap="round" stroke-linejoin="round"/>
<path d="M6.09082 14.0909V17" stroke="#474747" stroke-width="1.5" stroke-linecap="round" stroke-linejoin="round"/>
<path d="M3.18164 17H8.99982" stroke="#474747" stroke-width="1.5" stroke-linecap="round" stroke-linejoin="round"/>
</svg>
