<svg width="31" height="24" viewBox="0 0 31 24" fill="none" xmlns="http://www.w3.org/2000/svg">
<ellipse cx="15.4676" cy="5.125" rx="3.94565" ry="4.125" fill="white" stroke="white" stroke-width="2"/>
<ellipse cx="4.94586" cy="9.25" rx="2.63043" ry="2.75" stroke="white" stroke-width="2"/>
<ellipse cx="25.9893" cy="9.25" rx="2.63043" ry="2.75" stroke="white" stroke-width="2"/>
<path d="M8.89111 19.375C8.89111 16.0613 11.5774 13.375 14.8911 13.375H16.0433C19.357 13.375 22.0433 16.0613 22.0433 19.375V23H8.89111V19.375Z" fill="white" stroke="white" stroke-width="2"/>
<path d="M9.11381 17.7505L10.0766 18.0207L10.2203 17.5087L9.8761 17.1033L9.11381 17.7505ZM8.8913 23H7.8913V24L8.8913 24L8.8913 23ZM1 23H0V24H1V23ZM9.8913 19.375C9.8913 18.9042 9.95609 18.4503 10.0766 18.0207L8.15099 17.4804C7.98159 18.0841 7.8913 18.7198 7.8913 19.375H9.8913ZM9.8913 23V19.375H7.8913V23H9.8913ZM10.2065 22L8.89131 22L8.8913 24L10.2065 24L10.2065 22ZM10.2065 22H8.2337V24H10.2065V22ZM8.2337 22H1V24H8.2337V22ZM2 23V20.7283H0V23H2ZM2 20.7283C2 18.7382 3.61323 17.125 5.60326 17.125V15.125C2.50866 15.125 0 17.6337 0 20.7283H2ZM5.60326 17.125C6.70417 17.125 7.68903 17.6175 8.35152 18.3978L9.8761 17.1033C8.84985 15.8946 7.31592 15.125 5.60326 15.125V17.125Z" fill="white"/>
<path d="M21.8209 17.7503L20.8581 18.0205L20.7144 17.5085L21.0587 17.1031L21.8209 17.7503ZM22.0435 23H23.0435V24L22.0435 24L22.0435 23ZM29.9346 23H30.9346V24H29.9346V23ZM21.0435 19.375C21.0435 18.9042 20.9787 18.4501 20.8581 18.0205L22.7837 17.4801C22.9532 18.0839 23.0435 18.7197 23.0435 19.375H21.0435ZM21.0435 23V19.375H23.0435V23H21.0435ZM20.728 22L22.0435 22L22.0435 24L20.7281 24L20.728 22ZM20.728 22H22.7009V24H20.728V22ZM22.7009 22H29.9346V24H22.7009V22ZM28.9346 23V20.7283H30.9346V23H28.9346ZM28.9346 20.7283C28.9346 18.7382 27.3213 17.125 25.3313 17.125V15.125C28.4259 15.125 30.9346 17.6337 30.9346 20.7283H28.9346ZM25.3313 17.125C24.2305 17.125 23.2457 17.6174 22.5832 18.3976L21.0587 17.1031C22.0849 15.8945 23.6188 15.125 25.3313 15.125V17.125Z" fill="white"/>
</svg>
