<svg width="29" height="24" viewBox="0 0 29 24" fill="none" xmlns="http://www.w3.org/2000/svg">
<path d="M18.9662 17.6657L19.0618 17.4347L18.9662 17.6657C19.1008 17.7214 19.245 17.7501 19.3907 17.7501C19.5364 17.7501 19.6807 17.7214 19.8153 17.6657L19.7196 17.4347L19.8153 17.6657C19.9499 17.6099 20.0722 17.5282 20.1753 17.4251L19.9985 17.2484L20.1753 17.4251C20.2783 17.3221 20.36 17.1998 20.4158 17.0652L20.1848 16.9695L20.4158 17.0652C20.4715 16.9306 20.5002 16.7863 20.5002 16.6406C20.5002 16.4949 20.4715 16.3506 20.4158 16.216L20.1848 16.3117L20.4158 16.216C20.36 16.0814 20.2783 15.9591 20.1753 15.8561L16.3192 12L20.1753 8.14389C20.3833 7.93582 20.5002 7.65362 20.5002 7.35937C20.5002 7.06511 20.3833 6.78291 20.1753 6.57484C19.9672 6.36677 19.685 6.24988 19.3907 6.24988C19.0965 6.24988 18.8143 6.36677 18.6062 6.57484L14.7501 10.4309L10.894 6.57484C10.6859 6.36677 10.4037 6.24988 10.1095 6.24988C9.81523 6.24988 9.53303 6.36677 9.32496 6.57484C9.11689 6.78291 9 7.06511 9 7.35937C9 7.65362 9.11689 7.93582 9.32496 8.14389L13.1811 12L9.32496 15.8561C9.11689 16.0642 9 16.3464 9 16.6406C9 16.9349 9.11689 17.2171 9.32496 17.4251C9.53303 17.6332 9.81524 17.7501 10.1095 17.7501C10.4037 17.7501 10.6859 17.6332 10.894 17.4251L14.7501 13.569L18.6062 17.4251C18.7092 17.5282 18.8315 17.6099 18.9662 17.6657Z" fill="white" stroke="white" stroke-width="0.5"/>
<path d="M1.7797 1.7797C1.1204 2.43901 0.75 3.33322 0.75 4.26562V19.7344C0.75 20.6668 1.1204 21.561 1.7797 22.2203C2.43901 22.8796 3.33322 23.25 4.26562 23.25H25.2344C26.1668 23.25 27.061 22.8796 27.7203 22.2203C28.3796 21.561 28.75 20.6668 28.75 19.7344V4.26562C28.75 3.33322 28.3796 2.43901 27.7203 1.7797C27.061 1.1204 26.1668 0.75 25.2344 0.75H4.26562C3.33322 0.75 2.43901 1.1204 1.7797 1.7797ZM3.3486 3.3486C3.59181 3.10538 3.92167 2.96875 4.26562 2.96875H25.2344C25.5783 2.96875 25.9082 3.10538 26.1514 3.3486C26.3946 3.59181 26.5312 3.92167 26.5312 4.26562V19.7344C26.5312 20.0783 26.3946 20.4082 26.1514 20.6514C25.9082 20.8946 25.5783 21.0312 25.2344 21.0312H4.26562C3.92167 21.0312 3.59181 20.8946 3.3486 20.6514C3.10538 20.4082 2.96875 20.0783 2.96875 19.7344V4.26562C2.96875 3.92167 3.10538 3.59181 3.3486 3.3486Z" fill="white" stroke="white" stroke-width="0.5"/>
</svg>
