<svg width="29" height="24" viewBox="0 0 29 24" fill="none" xmlns="http://www.w3.org/2000/svg">
<path d="M13.9655 5.71547L13.9655 5.71545C14.0685 5.61244 14.1909 5.53074 14.3255 5.475C14.4601 5.41928 14.6043 5.3906 14.75 5.39062L13.9655 5.71547ZM13.9655 5.71547L9.84047 9.84047C9.6324 10.0485 9.51551 10.3307 9.51551 10.625C9.51551 10.9193 9.6324 11.2015 9.84047 11.4095C10.0485 11.6176 10.3307 11.7345 10.625 11.7345C10.9193 11.7345 11.2015 11.6176 11.4095 11.4095L13.6406 9.17843V17.3281C13.6406 17.6223 13.7575 17.9045 13.9656 18.1126C14.1736 18.3206 14.4558 18.4375 14.75 18.4375C15.0442 18.4375 15.3264 18.3206 15.5344 18.1126C15.7425 17.9045 15.8594 17.6223 15.8594 17.3281V9.17843L18.0905 11.4095C18.2985 11.6176 18.5807 11.7345 18.875 11.7345C19.1693 11.7345 19.4515 11.6176 19.6595 11.4095C19.8676 11.2015 19.9845 10.9193 19.9845 10.625C19.9845 10.3307 19.8676 10.0485 19.6595 9.84047L15.5345 5.71547C15.3267 5.50767 15.0438 5.39064 14.75 5.39062L13.9655 5.71547ZM3.92188 0.75C3.08064 0.75 2.27386 1.08418 1.67902 1.67902C1.08418 2.27386 0.75 3.08064 0.75 3.92188V20.0781C0.75 20.9194 1.08418 21.7261 1.67902 22.321C2.27386 22.9158 3.08064 23.25 3.92188 23.25H25.5781C26.4194 23.25 27.2261 22.9158 27.821 22.321C28.4158 21.7261 28.75 20.9194 28.75 20.0781V3.92188C28.75 3.08064 28.4158 2.27386 27.821 1.67902C27.2261 1.08418 26.4194 0.75 25.5781 0.75H3.92188ZM2.96875 3.92188C2.96875 3.39582 3.39582 2.96875 3.92188 2.96875H25.5781C26.1048 2.96875 26.5312 3.39573 26.5312 3.92188V20.0781C26.5312 20.3309 26.4308 20.5733 26.2521 20.7521C26.0733 20.9308 25.8309 21.0312 25.5781 21.0312H3.92188C3.66909 21.0312 3.42666 20.9308 3.24791 20.7521C3.06917 20.5733 2.96875 20.3309 2.96875 20.0781V3.92188Z" fill="#610BEF" stroke="#610BEF" stroke-width="0.5"/>
</svg>
