<svg width="239" height="60" viewBox="0 0 239 60" fill="none" xmlns="http://www.w3.org/2000/svg">
<rect width="239" height="60" rx="30" fill="#610BEF"/>
<path d="M18 21.9181C18 20.8789 18.4128 19.8824 19.1476 19.1476C19.8824 18.4128 20.8789 18 21.9181 18H45.4264C46.4656 18 47.4621 18.4128 48.1969 19.1476C48.9317 19.8824 49.3445 20.8789 49.3445 21.9181V27.1604C49.1406 27.0562 48.9305 26.9646 48.7154 26.8862L48.693 26.8772L48.4299 26.7899L47.6049 26.5414C47.4411 26.4918 47.2744 26.4529 47.1056 26.425V21.9181C47.1056 21.4727 46.9287 21.0456 46.6138 20.7307C46.2989 20.4158 45.8718 20.2389 45.4264 20.2389H21.9181C21.4727 20.2389 21.0456 20.4158 20.7307 20.7307C20.4158 21.0456 20.2389 21.4727 20.2389 21.9181V36.4709C20.2389 36.9162 20.4158 37.3433 20.7307 37.6582C21.0456 37.9731 21.4727 38.15 21.9181 38.15H26.9556V35.9111C26.9556 35.3173 27.1914 34.7479 27.6113 34.328C28.0312 33.9081 28.6007 33.6722 29.1945 33.6722H38.15C38.7438 33.6722 39.3133 33.9081 39.7332 34.328C40.153 34.7479 40.3889 35.3173 40.3889 35.9111V36.8951C39.9116 36.8943 39.4395 36.9952 39.0043 37.1911C38.569 37.3871 38.1805 37.6735 37.8646 38.0314L37.8377 38.0627L37.6843 38.2553L36.144 40.3889H21.9181C20.8789 40.3889 19.8824 39.9761 19.1476 39.2413C18.4128 38.5066 18 37.51 18 36.4709V21.9181ZM38.15 26.9556C38.15 28.1431 37.6783 29.2821 36.8385 30.1218C35.9988 30.9616 34.8598 31.4334 33.6722 31.4334C32.4847 31.4334 31.3457 30.9616 30.506 30.1218C29.6662 29.2821 29.1945 28.1431 29.1945 26.9556C29.1945 25.768 29.6662 24.629 30.506 23.7893C31.3457 22.9495 32.4847 22.4778 33.6722 22.4778C34.8598 22.4778 35.9988 22.9495 36.8385 23.7893C37.6783 24.629 38.15 25.768 38.15 26.9556V26.9556ZM44.5152 29.2079C44.763 28.7603 45.1567 28.4111 45.6307 28.2184C46.1046 28.0257 46.6303 28.0012 47.1201 28.1489L47.9228 28.3907L48.1377 28.4623C48.8026 28.7056 49.3891 29.1244 49.835 29.6744C50.2809 30.2243 50.5694 30.8848 50.6699 31.5856C51.0024 33.9006 50.2591 36.6074 48.4668 39.7117C46.6791 42.808 44.7111 44.8029 42.545 45.6761C41.849 45.9566 41.0871 46.0313 40.3498 45.8914C39.6126 45.7515 38.9311 45.4028 38.3862 44.8869L37.7795 44.3115L37.6429 44.1704C37.3055 43.7897 37.1078 43.3054 37.0824 42.7973C37.0569 42.2893 37.2053 41.7877 37.503 41.3752L39.0221 39.2706L39.1239 39.143C39.3373 38.9012 39.6157 38.726 39.926 38.6383C40.2363 38.5505 40.5653 38.554 40.8736 38.6482L43.1696 39.3501L43.229 39.3613H43.2771C43.5514 39.331 44.1088 38.7769 44.7939 37.5903C45.5552 36.2716 45.7119 35.5003 45.5025 35.301L44.335 34.2129L44.1861 34.064C43.8144 33.6613 43.5693 33.1581 43.4813 32.6171C43.3934 32.0761 43.4664 31.5212 43.6913 31.0214L44.4324 29.3747L44.5152 29.2079V29.2079Z" fill="white"/>
<path d="M69.452 26.42V36.068C69.452 36.74 69.608 37.232 69.92 37.544C70.256 37.832 70.808 37.976 71.576 37.976H73.916V42.224H70.748C66.5 42.224 64.376 40.16 64.376 36.032V26.42H62V22.28H64.376V17.348H69.452V22.28H73.916V26.42H69.452Z" fill="white"/>
<path d="M76.995 32.18C76.995 30.164 77.391 28.376 78.183 26.816C78.999 25.256 80.091 24.056 81.459 23.216C82.851 22.376 84.399 21.956 86.103 21.956C87.591 21.956 88.887 22.256 89.991 22.856C91.119 23.456 92.019 24.212 92.691 25.124V22.28H97.767V42.224H92.691V39.308C92.043 40.244 91.143 41.024 89.991 41.648C88.863 42.248 87.555 42.548 86.067 42.548C84.387 42.548 82.851 42.116 81.459 41.252C80.091 40.388 78.999 39.176 78.183 37.616C77.391 36.032 76.995 34.22 76.995 32.18ZM92.691 32.252C92.691 31.028 92.451 29.984 91.971 29.12C91.491 28.232 90.843 27.56 90.027 27.104C89.211 26.624 88.335 26.384 87.399 26.384C86.463 26.384 85.599 26.612 84.807 27.068C84.015 27.524 83.367 28.196 82.863 29.084C82.383 29.948 82.143 30.98 82.143 32.18C82.143 33.38 82.383 34.436 82.863 35.348C83.367 36.236 84.015 36.92 84.807 37.4C85.623 37.88 86.487 38.12 87.399 38.12C88.335 38.12 89.211 37.892 90.027 37.436C90.843 36.956 91.491 36.284 91.971 35.42C92.451 34.532 92.691 33.476 92.691 32.252Z" fill="white"/>
<path d="M108.479 15.584V42.224H103.439V15.584H108.479Z" fill="white"/>
<path d="M126.017 42.224L119.249 33.728V42.224H114.209V15.584H119.249V30.74L125.945 22.28H132.497L123.713 32.288L132.569 42.224H126.017Z" fill="white"/>
<path d="M138.538 19.904C137.65 19.904 136.906 19.628 136.306 19.076C135.73 18.5 135.442 17.792 135.442 16.952C135.442 16.112 135.73 15.416 136.306 14.864C136.906 14.288 137.65 14 138.538 14C139.426 14 140.158 14.288 140.734 14.864C141.334 15.416 141.634 16.112 141.634 16.952C141.634 17.792 141.334 18.5 140.734 19.076C140.158 19.628 139.426 19.904 138.538 19.904ZM141.022 22.28V42.224H135.982V22.28H141.022Z" fill="white"/>
<path d="M152.62 26.42V36.068C152.62 36.74 152.776 37.232 153.088 37.544C153.424 37.832 153.976 37.976 154.744 37.976H157.084V42.224H153.916C149.668 42.224 147.544 40.16 147.544 36.032V26.42H145.168V22.28H147.544V17.348H152.62V22.28H157.084V26.42H152.62Z" fill="white"/>
<path d="M170.315 42.548C168.395 42.548 166.667 42.128 165.131 41.288C163.595 40.424 162.383 39.212 161.495 37.652C160.631 36.092 160.199 34.292 160.199 32.252C160.199 30.212 160.643 28.412 161.531 26.852C162.443 25.292 163.679 24.092 165.239 23.252C166.799 22.388 168.539 21.956 170.459 21.956C172.379 21.956 174.119 22.388 175.679 23.252C177.239 24.092 178.463 25.292 179.351 26.852C180.263 28.412 180.719 30.212 180.719 32.252C180.719 34.292 180.251 36.092 179.315 37.652C178.403 39.212 177.155 40.424 175.571 41.288C174.011 42.128 172.259 42.548 170.315 42.548ZM170.315 38.156C171.227 38.156 172.079 37.94 172.871 37.508C173.687 37.052 174.335 36.38 174.815 35.492C175.295 34.604 175.535 33.524 175.535 32.252C175.535 30.356 175.031 28.904 174.023 27.896C173.039 26.864 171.827 26.348 170.387 26.348C168.947 26.348 167.735 26.864 166.751 27.896C165.791 28.904 165.311 30.356 165.311 32.252C165.311 34.148 165.779 35.612 166.715 36.644C167.675 37.652 168.875 38.156 170.315 38.156Z" fill="white"/>
<path d="M203.994 22.28V42.224H198.918V39.704C198.27 40.568 197.418 41.252 196.362 41.756C195.33 42.236 194.202 42.476 192.978 42.476C191.418 42.476 190.038 42.152 188.838 41.504C187.638 40.832 186.69 39.86 185.994 38.588C185.322 37.292 184.986 35.756 184.986 33.98V22.28H190.026V33.26C190.026 34.844 190.422 36.068 191.214 36.932C192.006 37.772 193.086 38.192 194.454 38.192C195.846 38.192 196.938 37.772 197.73 36.932C198.522 36.068 198.918 34.844 198.918 33.26V22.28H203.994Z" fill="white"/>
<path d="M215.585 26.42V36.068C215.585 36.74 215.741 37.232 216.053 37.544C216.389 37.832 216.941 37.976 217.709 37.976H220.049V42.224H216.881C212.633 42.224 210.509 40.16 210.509 36.032V26.42H208.133V22.28H210.509V17.348H215.585V22.28H220.049V26.42H215.585Z" fill="white"/>
</svg>
