<svg width="5" height="21" viewBox="0 0 5 21" fill="none" xmlns="http://www.w3.org/2000/svg">
<path d="M2.4211 7.7C2.10316 7.7 1.78833 7.76262 1.49458 7.8843C1.20084 8.00597 0.933944 8.1843 0.709124 8.40912C0.484304 8.63394 0.305967 8.90084 0.184295 9.19458C0.0626237 9.48833 2.50362e-07 9.80316 2.50362e-07 10.1211C2.50362e-07 10.439 0.0626237 10.7539 0.184295 11.0476C0.305967 11.3414 0.484304 11.6083 0.709124 11.8331C0.933944 12.0579 1.20084 12.2362 1.49458 12.3579C1.78833 12.4796 2.10316 12.5422 2.4211 12.5422C3.06322 12.5421 3.67897 12.2868 4.13292 11.8327C4.58686 11.3785 4.8418 10.7627 4.84165 10.1206C4.8415 9.47843 4.58628 8.86268 4.13214 8.40874C3.67799 7.95479 3.06212 7.69985 2.42 7.7H2.4211ZM2.4211 4.84C2.7389 4.83986 3.05356 4.77712 3.34711 4.65537C3.64066 4.53362 3.90736 4.35524 4.13198 4.13042C4.35659 3.9056 4.53473 3.63874 4.65621 3.34508C4.77769 3.05141 4.84014 2.7367 4.84 2.4189C4.83986 2.1011 4.77712 1.78644 4.65537 1.49289C4.53362 1.19934 4.35524 0.93264 4.13042 0.708024C3.9056 0.483408 3.63874 0.305274 3.34508 0.183791C3.05141 0.0623079 2.7367 -0.000144204 2.4189 2.50023e-07C1.77708 0.000291998 1.16166 0.255535 0.708024 0.70958C0.254392 1.16362 -0.000291488 1.77928 2.50362e-07 2.4211C0.000291988 3.06292 0.255535 3.67834 0.709579 4.13198C1.16362 4.58561 1.77928 4.84029 2.4211 4.84ZM2.4211 15.4C1.77898 15.4 1.16317 15.6551 0.709124 16.1091C0.25508 16.5632 2.50362e-07 17.179 2.50362e-07 17.8211C2.50362e-07 18.4632 0.25508 19.079 0.709124 19.5331C1.16317 19.9871 1.77898 20.2422 2.4211 20.2422C3.06322 20.2422 3.67903 19.9871 4.13308 19.5331C4.58712 19.079 4.8422 18.4632 4.8422 17.8211C4.8422 17.179 4.58712 16.5632 4.13308 16.1091C3.67903 15.6551 3.06322 15.4 2.4211 15.4Z" fill="white"/>
</svg>
